<svg width="541" height="1051" viewBox="0 0 541 1051" fill="none" xmlns="http://www.w3.org/2000/svg">
  <path d="M136.106 524.106C126.708 518.074 119.278 510.93 113.17 502.586C99.2861 483.634 90.5544 462.994 90.6002 439.73C90.6337 422.787 99.9556 411.179 114.935 404.047C126.369 398.6 138.163 401.454 149.175 406.892C177.45 420.842 191.563 452.942 182.715 482.503C178.83 495.504 172.222 507.07 163.755 517.693C162.938 518.718 162.095 519.72 160.765 521.329C169.049 524.478 176.535 528.14 184.433 530.174C225.717 540.81 267.485 549.911 310.179 548.15C358.383 546.174 401.419 530.33 437.071 498.946C453.101 484.844 464.607 467.572 469.118 446.9C474.847 420.668 473.652 394.52 463.1 368.888C451.507 340.712 436.959 314.157 418.006 289.724C396.836 262.434 384.056 231.539 376.464 198.691C375.396 194.057 373.474 191.912 368.703 190.216C311.774 169.896 260.263 141.19 217.58 98.5011C197.635 78.5448 176.395 59.7496 151.412 45.676C118.883 27.3629 84.1669 15.3518 46.4315 14.4332C37.1067 14.197 27.7721 16.634 18.4745 18.0466C16.802 18.3066 15.2405 19.4461 13.737 20.3571C9.43436 22.9603 3.57268 22.0516 1.49421 18.3928C-0.580634 14.7196 1.22704 10.6019 6.29782 8.48237C21.8263 2.00614 38.2181 -0.724077 55.2008 0.739488C106.675 5.18762 152.224 24.1571 191.798 56.5255C207.779 69.5932 222.961 83.6139 237.876 97.8101C266.94 125.461 300.802 145.982 337.49 162.446C347.545 166.957 357.871 170.898 368.094 175.056C369.463 175.616 371.001 175.824 371.793 176.025C373.23 166.781 373.678 157.423 376.257 148.697C384.491 120.744 399.005 96.3752 423.212 78.5082C458.004 52.8354 509.382 64.4351 530.959 97.2109C539.755 110.57 541.185 125.695 540.139 140.86C538.241 168.291 523.194 186.231 496.241 194.478C471.342 202.089 445.49 203.424 419.409 201.584C410.159 200.926 400.972 199.144 391.303 197.817C391.681 199.463 392.04 201.12 392.466 202.764C400.772 235.185 415.848 264.488 436.832 291.321C456.672 316.709 470.541 345.189 480.696 375.083C490.184 403.03 489.721 431.449 480.975 459.104C473.656 482.257 458.931 500.932 439.477 516.052C400.747 546.153 355.906 561.403 305.908 562.483C279.983 563.039 254.069 560.04 228.545 554.373C216.662 551.74 204.723 549.396 192.808 546.892C178.898 543.973 165.73 538.946 152.887 533.014C151.577 532.408 149.183 532.378 148.148 533.135C135.363 542.404 122.536 551.649 110.105 561.343C90.6697 576.513 73.3932 593.583 62.5656 615.77C51.2019 639.068 44.7347 663.379 48.75 689.634C50.8988 703.679 57.2443 716.417 63.5636 729.132C76.5129 755.22 90.9729 780.369 111.107 802.274C129.985 822.796 151.198 840.824 173.967 857.103C192.826 870.612 212.044 883.71 231.711 896.101C252.518 909.207 275.013 919.168 298.677 926.461C307.236 929.087 315.738 931.882 324.232 934.704C326.594 935.486 329.088 936.377 331.027 937.826C332.381 938.823 333.721 941.003 333.538 942.416C333.339 943.825 331.418 945.633 329.884 946.035C327.294 946.716 324.287 947.033 321.687 946.434C300.641 941.675 280.157 935.386 260.495 926.235C216.295 905.646 177.491 877.456 139.707 847.624C98.5687 815.148 69.1175 774.599 47.2286 728.502C38.7185 710.563 31.9669 692.402 32.8326 672.553C34.5749 632.312 50.0475 597.955 78.917 569.291C92.2432 556.068 107.308 544.898 122.714 534.074C127.073 530.998 131.318 527.681 136.106 524.106ZM398.151 184.487C403.314 185.204 411.441 186.839 419.616 187.407C444.141 189.111 468.417 187.969 491.858 180.839C512.091 174.689 523.776 161.416 525.295 140.684C526.219 128.133 525.632 115.457 518.344 104.365C504.161 82.8292 470.227 70.682 440.953 84.6338C425.484 92.0067 414.777 104.495 406.103 118.38C395.346 135.583 386.83 153.734 387.703 174.753C388.059 183.449 387.344 181.503 398.151 184.487ZM168.196 479.794C174.873 453.711 164.149 429.951 142.493 419.443C135.58 416.093 128.062 413.563 120.817 417.169C111.48 421.81 105.588 429.24 105.325 439.997C104.994 453.596 109.072 466.306 115.123 478.452C121.896 492.013 130.805 504.047 144.316 512.43C146.597 513.844 147.897 513.611 149.547 511.749C158.503 501.584 164.954 490.131 168.196 479.794Z" fill="#63D79E"/>
  <path d="M344.053 1011.85C341.025 1011.36 338.32 1010.91 335.61 1010.48C332.299 1009.96 328.98 1009.47 325.675 1008.93C323.881 1008.63 322.652 1007.38 322.586 1005.92C322.514 1004.29 323.373 1003.15 325.38 1002.74C332.062 1001.39 338.772 1000.2 345.452 998.831C350.018 997.893 354.538 996.756 359.083 995.726C359.593 995.609 360.124 995.585 360.336 995.217C361.221 994.078 361.934 992.728 363.023 991.841C370.122 986.07 377.285 980.374 384.47 974.709C386.399 973.187 388.05 973.227 389.904 974.559C399.27 981.299 408.767 987.864 417.956 994.838C430.628 1004.45 443.075 1014.36 455.607 1024.17C456.493 1024.86 457.307 1025.68 458.061 1026.53C459.149 1027.75 459.518 1029.18 458.664 1030.66C457.861 1032.05 456.5 1032.21 455.04 1031.93C448.868 1030.77 442.688 1029.61 436.514 1028.46C436.17 1028.39 435.816 1028.38 435.322 1028.32C434.794 1031.05 432.81 1031.44 430.534 1031.19C408.052 1028.81 385.479 1029.67 362.942 1029.03C357.806 1028.89 352.685 1028.35 347.56 1027.95C346.85 1027.9 346.139 1027.72 345.453 1027.51C342.685 1026.69 341.624 1025.17 342.029 1022.29C342.396 1019.69 342.987 1017.12 343.485 1014.54C343.646 1013.73 343.827 1012.93 344.053 1011.85ZM439.356 1019.33C439.005 1019.04 438.663 1018.74 438.303 1018.46C430.888 1012.71 423.568 1006.83 416.024 1001.25C406.795 994.441 397.36 987.902 388.056 981.189C387.135 980.524 386.668 980.987 386.053 981.446C381.048 985.23 376.044 989.014 371.038 992.804C369.932 993.64 368.834 994.478 367.374 995.591C392.135 1002.31 415.822 1010.5 439.356 1019.33ZM344.628 1005.27C368.735 1009.57 393.136 1013.91 417.535 1018.27C417.573 1018.18 417.606 1018.09 417.645 1018C399.216 1011.93 380.787 1005.86 362.358 999.784C362.373 999.97 362.382 1000.15 362.396 1000.35C361.05 1000.88 359.746 1001.57 358.356 1001.93C353.682 1003.13 348.976 1004.22 344.628 1005.27ZM349.988 1013.01C349.341 1016.12 348.743 1018.98 348.028 1022.41C368.028 1022.73 387.584 1023.04 407.14 1023.35C388.095 1019.52 369.166 1015.17 349.988 1013.01Z" fill="black"/>
</svg>
